# xmcd CD database file
#
# Track frame offsets:
#	187
#	41167
#	53030
#	71562
#	114390
#	129115
#	168672
#	189445
#
# Disc length: 3008 seconds
#
# Revision: 2
# Processed by: cddbd v1.5.2PL0 Copyright (c) Steve Scherf et al.
# Submitted via: CDex 1.78
#
DISCID=690bbe08
DTITLE=Stomu Yamashta - Sea and Sky
DYEAR=1984
DGENRE=New Age
TTITLE0=A Photon
TTITLE1=Appeared
TTITLE2=And
TTITLE3=Touched;
TTITLE4=Ah...
TTITLE5=Time
TTITLE6=To See
TTITLE7=To Know
EXTD=YEAR: 1984
EXTT0=
EXTT1=
EXTT2=
EXTT3=
EXTT4=
EXTT5=
EXTT6=
EXTT7=
PLAYORDER=
